<?xml version="1.0" ?><svg id="Layer_1" style="enable-background:new 0 0 128 128;" version="1.1" viewBox="0 0 128 128" xml:space="preserve" xmlns="http://www.w3.org/2000/svg" xmlns:xlink="http://www.w3.org/1999/xlink"><style type="text/css">
	.st0{fill:#e6e6e6;}
	.st1{fill:none;stroke: #fff;stroke-width:6;stroke-linecap:round;stroke-linejoin:round;stroke-miterlimit:10;}
	.st2{fill:#76ECFF;}
	.st3{fill:#fff;}
	.st4{fill:#FF697B;}
	.st5{fill:#659EC9;}
	.st6{fill:#000;}
	.st7{fill:#A4F4C4;}
	.st8{fill:#06A18C;}
	.st9{fill:#8FE5B5;}
	.st10{opacity:0.5;fill:#06A18C;}
	.st11{opacity:0.5;}
	.st12{fill:#FFDBAB;}
	.st13{fill:#D18669;}
	.st14{fill:#FCF09D;}
	.st15{fill:none;stroke:#FFFFFF;stroke-miterlimit:10;}
	.st16{fill:#EDECEB;}
	.st17{fill:#4FBBC6;}
</style><g><g><path class="st3" d="M82.6,39.4c-8,0-11.4,3.9-17,3.9c-5.7,0-10.1-3.9-17.1-3.9c-6.8,0-14.1,4.3-18.7,11.6    c-6.5,10.3-5.4,29.7,5.1,46.2c3.8,5.9,8.8,12.5,15.4,12.6c0,0,0.1,0,0.1,0c5.7,0,7.4-3.9,15.3-3.9c0,0,0.1,0,0.1,0    c7.7,0,9.3,3.9,15,3.9c0,0,0.1,0,0.1,0c6.6-0.1,11.9-7.4,15.6-13.3c2.7-4.2,3.7-6.4,5.8-11.1c-15.2-5.9-17.6-28.1-2.6-36.6    C95.1,42.9,88.6,39.4,82.6,39.4L82.6,39.4z"/></g><g><path class="st0" d="M36.1,99.1c0.4,0.6,0.8,1.2,1.2,1.7c0,0,0,0,0,0c-5-13.4-4.5-26.8,0.5-34.8c4.6-7.3,11.9-11.6,18.7-11.6    c0.3,0,0.6,0,0.9,0c8.9-0.1,17.9,1.7,25.9,5.7c2.1,1,4.4,1.9,6.6,2.3c0.5-2.6,1.5-5.1,3-7.4c0.1-0.3,0.2-0.4,0.3-0.4    c0.4-0.5,0.8-1,1.2-1.5c0.1-0.1,0.1-0.1,0.1-0.2c0.5-0.5,0.9-1,1.4-1.5c0,0,0,0,0,0c0.5-0.4,1-0.8,1.5-1.2    c0.1-0.1,0.3-0.2,0.4-0.3c0.6-0.4,1.1-0.8,1.7-1.1c-0.9-1.1-1.8-2.1-2.8-3.1c-2-1.9-4.1-3.3-6.3-4.4c-0.4-0.2-0.7-0.3-1.1-0.5    c-2.3-0.9-4.6-1.4-6.9-1.4c-4.5,0-7.6,1.2-10.4,2.3c-2.2,0.8-4.2,1.6-6.7,1.6c-5.7,0-10.1-3.9-17.1-3.9c-1.3,0-2.6,0.2-3.9,0.4    c-2.1,0.5-4.3,1.4-6.3,2.6c-1.6,1-3.2,2.2-4.6,3.6c-1.4,1.4-2.8,3.1-3.9,4.9c-2.8,4.5-4.2,10.7-4,17.7c0.3,8,2.6,16.9,7.3,25.3    c0.6,1.1,1.2,2.1,1.9,3.1c0.4,0.6,0.7,1.1,1.1,1.7C36,98.9,36,99,36.1,99.1z"/></g><g><path class="st6" d="M50.3,112.8h-0.1c-8-0.1-13.8-7.5-17.9-14c-10.5-16.6-12.7-37.3-5.1-49.4c5.1-8,13.2-13,21.2-13    c4.2,0,7.5,1.2,10.4,2.3c2.4,0.9,4.5,1.6,6.7,1.6c2,0,3.7-0.7,5.8-1.5c2.8-1.1,6.3-2.4,11.2-2.4c7.1,0,14.4,3.9,19.5,10.5    c1,1.3,0.8,3.2-0.5,4.2c-1.3,1-3.2,0.8-4.2-0.5c-4-5.1-9.5-8.2-14.7-8.2c-3.8,0-6.5,1-9,2c-2.4,0.9-4.9,1.9-8,1.9    c-3.3,0-6-1-8.7-2c-2.7-1-5.2-1.9-8.3-1.9c-6,0-12.2,3.9-16.2,10.2c-5.4,8.5-5.4,26.4,5.1,42.9c3.3,5.2,7.7,11.2,12.9,11.2h0.1    c2,0,3.3-0.6,5.1-1.4c2.4-1.1,5.3-2.4,10.2-2.5h0.1c4.8,0,7.7,1.4,10,2.4c1.8,0.8,3,1.4,5,1.4h0.1c4.9-0.1,9.6-6.4,13.1-11.9    c2-3.2,3.1-5.1,4.4-8.1c-7.2-4.1-11.8-12.2-11.8-21.1c0-1.7,1.3-3,3-3c1.7,0,3,1.4,3,3c0,6.2,3.3,13.9,10.8,16.8    c0.8,0.3,1.4,0.9,1.7,1.6c0.3,0.8,0.3,1.6,0,2.3c-2.1,4.9-3.2,7.2-6,11.6c-4.6,7.2-10.4,14.6-18.1,14.7h-0.2c-3.3,0-5.5-1.1-7.5-2    c-2-1-4-1.9-7.5-1.9h-0.1c-3.6,0-5.6,0.9-7.7,1.9C55.9,111.8,53.6,112.8,50.3,112.8z"/></g><g><path class="st6" d="M67.4,34.3c-1,0-1.9-0.5-2.5-1.3c-0.9-1.4-0.6-3.2,0.8-4.2c3.1-2.1,6.2-6,8.1-10.2c0.7-1.5,2.5-2.2,4-1.5    c1.5,0.7,2.2,2.5,1.5,4c-2.4,5.3-6.2,10-10.3,12.7C68.5,34.1,68,34.3,67.4,34.3z"/></g></g></svg>